<?xml version="1.0" encoding="UTF-8" ?>
<!DOCTYPE svg PUBLIC "-//W3C//DTD SVG 1.1//EN" "http://www.w3.org/Graphics/SVG/1.1/DTD/svg11.dtd">
<svg width="512pt" height="512pt" viewBox="0 0 512 512" version="1.1" xmlns="http://www.w3.org/2000/svg">
<path fill="#fefefe" d=" M 0.00 0.00 L 246.60 0.00 C 206.29 1.99 166.71 16.90 135.38 42.39 C 96.18 73.75 70.16 121.03 64.99 171.00 C 63.60 184.67 63.35 198.57 65.50 212.18 C 69.06 234.54 76.47 256.07 85.10 276.93 C 99.61 311.55 117.87 344.46 137.78 376.23 C 152.83 400.14 169.02 423.34 186.31 445.68 C 200.31 463.52 214.85 481.05 231.40 496.60 C 238.24 502.62 245.19 509.28 254.11 512.00 L 0.00 512.00 L 0.00 0.00 Z" />
<path fill="#020202" d=" M 246.60 0.00 L 265.27 0.00 C 301.10 1.79 336.39 13.62 365.77 34.25 C 393.69 53.64 416.29 80.58 430.52 111.45 C 443.44 139.38 449.53 170.49 447.76 201.23 C 445.82 223.84 439.06 245.73 430.96 266.82 C 416.41 304.07 397.16 339.29 376.11 373.21 C 356.46 404.61 335.04 434.93 311.39 463.44 C 299.97 476.93 288.24 490.29 274.74 501.75 C 269.63 505.87 264.34 510.21 257.90 512.00 L 254.11 512.00 C 245.19 509.28 238.24 502.62 231.40 496.60 C 214.85 481.05 200.31 463.52 186.31 445.68 C 169.02 423.34 152.83 400.14 137.78 376.23 C 117.87 344.46 99.61 311.55 85.10 276.93 C 76.47 256.07 69.06 234.54 65.50 212.18 C 63.35 198.57 63.60 184.67 64.99 171.00 C 70.16 121.03 96.18 73.75 135.38 42.39 C 166.71 16.90 206.29 1.99 246.60 0.00 Z" />
<path fill="#fefefe" d=" M 265.27 0.00 L 512.00 0.00 L 512.00 512.00 L 257.90 512.00 C 264.34 510.21 269.63 505.87 274.74 501.75 C 288.24 490.29 299.97 476.93 311.39 463.44 C 335.04 434.93 356.46 404.61 376.11 373.21 C 397.16 339.29 416.41 304.07 430.96 266.82 C 439.06 245.73 445.82 223.84 447.76 201.23 C 449.53 170.49 443.44 139.38 430.52 111.45 C 416.29 80.58 393.69 53.64 365.77 34.25 C 336.39 13.62 301.10 1.79 265.27 0.00 Z" />
<path fill="#fefefe" d=" M 248.25 64.35 C 265.75 63.42 283.47 65.79 299.91 71.94 C 329.73 82.80 355.09 105.23 369.59 133.44 C 379.43 152.32 384.41 173.72 383.76 195.00 C 383.36 221.97 373.75 248.64 357.23 269.93 C 340.54 291.68 316.70 307.86 290.26 315.18 C 266.89 321.71 241.63 321.38 218.44 314.21 C 189.22 305.28 163.57 285.40 147.47 259.45 C 136.81 242.45 130.28 222.89 128.60 202.89 C 125.99 173.20 134.21 142.72 151.52 118.44 C 173.43 87.05 209.99 66.46 248.25 64.35 Z" />
</svg>
